<svg width="24" height="24" viewBox="0 0 24 24" fill="none" xmlns="http://www.w3.org/2000/svg">
<path d="M12 17.4C9.15564 17.4 6.85314 15.1984 6.64126 12.4084L2.70751 9.36825C2.19039 10.017 1.71451 10.7029 1.33051 11.4529C1.24473 11.6226 1.20003 11.81 1.20003 12.0002C1.20003 12.1903 1.24473 12.3778 1.33051 12.5475C3.36414 16.5154 7.39014 19.2 12 19.2C13.0091 19.2 13.9826 19.05 14.9209 18.8078L12.975 17.3021C12.6536 17.3642 12.3273 17.397 12 17.4ZM23.7683 19.5788L19.6226 16.3748C20.882 15.3135 21.9177 14.0124 22.6695 12.5471C22.7553 12.3774 22.8 12.19 22.8 11.9998C22.8 11.8097 22.7553 11.6222 22.6695 11.4525C20.6359 7.48463 16.6099 4.8 12 4.8C10.0693 4.80234 8.16999 5.28839 6.47551 6.21375L1.70476 2.52638C1.64255 2.47797 1.57141 2.44229 1.4954 2.42139C1.4194 2.40048 1.34002 2.39476 1.2618 2.40454C1.18358 2.41433 1.10806 2.43943 1.03955 2.47842C0.971036 2.5174 0.910878 2.56951 0.862511 2.63175L0.126385 3.57938C0.0287349 3.70499 -0.0150217 3.86426 0.00473934 4.02213C0.0245004 4.18001 0.106161 4.32358 0.23176 4.42125L22.2953 21.4736C22.3575 21.522 22.4286 21.5577 22.5046 21.5786C22.5806 21.5995 22.66 21.6052 22.7382 21.5955C22.8164 21.5857 22.892 21.5606 22.9605 21.5216C23.029 21.4826 23.0891 21.4305 23.1375 21.3683L23.874 20.4206C23.9716 20.295 24.0153 20.1357 23.9955 19.9778C23.9757 19.8199 23.8939 19.6764 23.7683 19.5788ZM16.8788 14.2538L15.405 13.1145C15.5291 12.7558 15.595 12.3795 15.6 12C15.6073 11.4443 15.4842 10.8947 15.2406 10.3953C14.997 9.89583 14.6396 9.46049 14.1972 9.12421C13.7548 8.78793 13.2397 8.56009 12.6933 8.459C12.1468 8.35791 11.5843 8.38638 11.0509 8.54213C11.277 8.84854 11.3993 9.21918 11.4 9.6C11.3944 9.72673 11.3751 9.85247 11.3423 9.975L8.58189 7.84163C9.54075 7.04033 10.7504 6.60092 12 6.6C12.7093 6.59961 13.4116 6.73901 14.067 7.01025C14.7223 7.28148 15.3178 7.67923 15.8193 8.18074C16.3208 8.68226 16.7185 9.27771 16.9898 9.93304C17.261 10.5884 17.4004 11.2908 17.4 12C17.4 12.8111 17.2016 13.5671 16.8788 14.2541V14.2538Z" fill="#323237"/>
</svg>
