<svg width="25" height="25" viewBox="0 0 25 25" fill="none" xmlns="http://www.w3.org/2000/svg">
<path fill-rule="evenodd" clip-rule="evenodd" d="M12.5996 5.5C12.0692 5.5 11.5605 5.71071 11.1854 6.08579C10.8103 6.46086 10.5996 6.96957 10.5996 7.5C10.5996 8.03043 10.8103 8.53914 11.1854 8.91421C11.5605 9.28929 12.0692 9.5 12.5996 9.5C13.13 9.5 13.6388 9.28929 14.0138 8.91421C14.3889 8.53914 14.5996 8.03043 14.5996 7.5C14.5996 6.96957 14.3889 6.46086 14.0138 6.08579C13.6388 5.71071 13.13 5.5 12.5996 5.5ZM9.77118 4.67157C10.5213 3.92143 11.5387 3.5 12.5996 3.5C13.6605 3.5 14.6779 3.92143 15.428 4.67157C16.1782 5.42172 16.5996 6.43913 16.5996 7.5C16.5996 8.56087 16.1782 9.57828 15.428 10.3284C14.6779 11.0786 13.6605 11.5 12.5996 11.5C11.5387 11.5 10.5213 11.0786 9.77118 10.3284C9.02104 9.57828 8.59961 8.56087 8.59961 7.5C8.59961 6.43913 9.02104 5.42172 9.77118 4.67157ZM5.59961 9.5C5.33439 9.5 5.08004 9.60536 4.8925 9.79289C4.70497 9.98043 4.59961 10.2348 4.59961 10.5C4.59961 10.7652 4.70497 11.0196 4.8925 11.2071C5.08004 11.3946 5.33439 11.5 5.59961 11.5C5.86483 11.5 6.11918 11.3946 6.30672 11.2071C6.49425 11.0196 6.59961 10.7652 6.59961 10.5C6.59961 10.2348 6.49425 9.98043 6.30672 9.79289C6.11918 9.60536 5.86483 9.5 5.59961 9.5ZM3.47829 8.37868C4.0409 7.81607 4.80396 7.5 5.59961 7.5C6.39526 7.5 7.15832 7.81607 7.72093 8.37868C8.28354 8.94129 8.59961 9.70435 8.59961 10.5C8.59961 11.2956 8.28354 12.0587 7.72093 12.6213C7.15832 13.1839 6.39526 13.5 5.59961 13.5C4.80396 13.5 4.0409 13.1839 3.47829 12.6213C2.91568 12.0587 2.59961 11.2956 2.59961 10.5C2.59961 9.70435 2.91568 8.94129 3.47829 8.37868ZM19.5996 9.5C19.3344 9.5 19.08 9.60536 18.8925 9.79289C18.705 9.98043 18.5996 10.2348 18.5996 10.5C18.5996 10.7652 18.705 11.0196 18.8925 11.2071C19.08 11.3946 19.3344 11.5 19.5996 11.5C19.8648 11.5 20.1192 11.3946 20.3067 11.2071C20.4943 11.0196 20.5996 10.7652 20.5996 10.5C20.5996 10.2348 20.4943 9.98043 20.3067 9.79289C20.1192 9.60536 19.8648 9.5 19.5996 9.5ZM17.4783 8.37868C18.0409 7.81607 18.804 7.5 19.5996 7.5C20.3953 7.5 21.1583 7.81607 21.7209 8.37868C22.2835 8.94129 22.5996 9.70435 22.5996 10.5C22.5996 11.2957 22.2835 12.0587 21.7209 12.6213C21.1583 13.1839 20.3953 13.5 19.5996 13.5C18.804 13.5 18.0409 13.1839 17.4783 12.6213C16.9157 12.0587 16.5996 11.2957 16.5996 10.5C16.5996 9.70435 16.9157 8.94129 17.4783 8.37868ZM12.5996 14.4993C11.7999 14.4993 11.0185 14.7389 10.3562 15.1872C9.69392 15.6355 9.18115 16.272 8.88404 17.0145C8.70087 17.4716 8.59961 17.9729 8.59961 18.5V19.5H16.5996V18.5C16.5996 17.9729 16.4985 17.4721 16.3154 17.0149C16.0182 16.2724 15.5053 15.6355 14.843 15.1872C14.1808 14.7389 13.3994 14.4993 12.5996 14.4993ZM18.5996 19.5H21.5996V18.5001C21.5996 18.5 21.5996 18.5001 21.5996 18.5001C21.5996 18.0845 21.47 17.6791 21.229 17.3405C20.988 17.0019 20.6475 16.7467 20.2548 16.6106C19.8621 16.4744 19.4367 16.464 19.0378 16.5808C18.801 16.6501 18.5806 16.7621 18.3867 16.91C18.5258 17.4175 18.5996 17.951 18.5996 18.5V19.5ZM17.5294 15.0776C17.1096 14.4732 16.58 13.9479 15.9642 13.531C14.9709 12.8587 13.799 12.4993 12.5996 12.4993C11.4002 12.4993 10.2283 12.8587 9.23504 13.531C8.61924 13.9479 8.08963 14.4732 7.66985 15.0776C7.37536 14.8995 7.05743 14.7591 6.72326 14.6613C5.92545 14.4278 5.0747 14.4486 4.28928 14.7209C3.50386 14.9932 2.82279 15.5035 2.34076 16.1808C1.85872 16.858 1.59967 17.6686 1.59961 18.4999V20.5C1.59961 21.0523 2.04732 21.5 2.59961 21.5H22.5996C23.1519 21.5 23.5996 21.0523 23.5996 20.5V18.5C23.5995 17.6687 23.3405 16.858 22.8585 16.1808C22.3764 15.5035 21.6954 14.9932 20.9099 14.7209C20.1245 14.4486 19.2738 14.4278 18.476 14.6613C18.1418 14.7591 17.8239 14.8995 17.5294 15.0776ZM6.81256 16.91C6.61865 16.7621 6.3982 16.6501 6.16144 16.5808C5.76253 16.464 5.33715 16.4744 4.94444 16.6106C4.55173 16.7467 4.2112 17.0019 3.97018 17.3405C3.72918 17.6791 3.59966 18.0844 3.59961 18.5C3.59961 18.5 3.59961 18.5 3.59961 18.5V19.5H6.59961V18.5C6.59961 17.951 6.67344 17.4175 6.81256 16.91Z" fill="#8C8AA8"/>
</svg>
