<svg width="25" height="25" viewBox="0 0 25 25" fill="none" xmlns="http://www.w3.org/2000/svg">
<path fill-rule="evenodd" clip-rule="evenodd" d="M12.6001 5.5C12.0697 5.5 11.561 5.71071 11.1859 6.08579C10.8108 6.46086 10.6001 6.96957 10.6001 7.5C10.6001 8.03043 10.8108 8.53914 11.1859 8.91421C11.561 9.28929 12.0697 9.5 12.6001 9.5C13.1305 9.5 13.6392 9.28929 14.0143 8.91421C14.3894 8.53914 14.6001 8.03043 14.6001 7.5C14.6001 6.96957 14.3894 6.46086 14.0143 6.08579C13.6392 5.71071 13.1305 5.5 12.6001 5.5ZM9.77167 4.67157C10.5218 3.92143 11.5392 3.5 12.6001 3.5C13.661 3.5 14.6784 3.92143 15.4285 4.67157C16.1787 5.42172 16.6001 6.43913 16.6001 7.5C16.6001 8.56087 16.1787 9.57828 15.4285 10.3284C14.6784 11.0786 13.661 11.5 12.6001 11.5C11.5392 11.5 10.5218 11.0786 9.77167 10.3284C9.02152 9.57828 8.6001 8.56087 8.6001 7.5C8.6001 6.43913 9.02152 5.42172 9.77167 4.67157ZM5.6001 9.5C5.33488 9.5 5.08053 9.60536 4.89299 9.79289C4.70545 9.98043 4.6001 10.2348 4.6001 10.5C4.6001 10.7652 4.70545 11.0196 4.89299 11.2071C5.08053 11.3946 5.33488 11.5 5.6001 11.5C5.86531 11.5 6.11967 11.3946 6.3072 11.2071C6.49474 11.0196 6.6001 10.7652 6.6001 10.5C6.6001 10.2348 6.49474 9.98043 6.3072 9.79289C6.11967 9.60536 5.86531 9.5 5.6001 9.5ZM3.47878 8.37868C4.04139 7.81607 4.80445 7.5 5.6001 7.5C6.39575 7.5 7.15881 7.81607 7.72142 8.37868C8.28403 8.94129 8.6001 9.70435 8.6001 10.5C8.6001 11.2956 8.28403 12.0587 7.72142 12.6213C7.15881 13.1839 6.39575 13.5 5.6001 13.5C4.80445 13.5 4.04139 13.1839 3.47878 12.6213C2.91617 12.0587 2.6001 11.2956 2.6001 10.5C2.6001 9.70435 2.91617 8.94129 3.47878 8.37868ZM19.6001 9.5C19.3349 9.5 19.0805 9.60536 18.893 9.79289C18.7055 9.98043 18.6001 10.2348 18.6001 10.5C18.6001 10.7652 18.7055 11.0196 18.893 11.2071C19.0805 11.3946 19.3349 11.5 19.6001 11.5C19.8653 11.5 20.1197 11.3946 20.3072 11.2071C20.4947 11.0196 20.6001 10.7652 20.6001 10.5C20.6001 10.2348 20.4947 9.98043 20.3072 9.79289C20.1197 9.60536 19.8653 9.5 19.6001 9.5ZM17.4788 8.37868C18.0414 7.81607 18.8044 7.5 19.6001 7.5C20.3957 7.5 21.1588 7.81607 21.7214 8.37868C22.284 8.94129 22.6001 9.70435 22.6001 10.5C22.6001 11.2957 22.284 12.0587 21.7214 12.6213C21.1588 13.1839 20.3957 13.5 19.6001 13.5C18.8044 13.5 18.0414 13.1839 17.4788 12.6213C16.9162 12.0587 16.6001 11.2957 16.6001 10.5C16.6001 9.70435 16.9162 8.94129 17.4788 8.37868ZM12.6001 14.4993C11.8004 14.4993 11.0189 14.7389 10.3567 15.1872C9.6944 15.6355 9.18164 16.272 8.88453 17.0145C8.70136 17.4716 8.6001 17.9729 8.6001 18.5V19.5H16.6001V18.5C16.6001 17.9729 16.499 17.4721 16.3158 17.0149C16.0187 16.2724 15.5058 15.6355 14.8435 15.1872C14.1812 14.7389 13.3998 14.4993 12.6001 14.4993ZM18.6001 19.5H21.6001V18.5001C21.6001 18.5 21.6001 18.5001 21.6001 18.5001C21.6001 18.0845 21.4705 17.6791 21.2295 17.3405C20.9885 17.0019 20.648 16.7467 20.2553 16.6106C19.8626 16.4744 19.4372 16.464 19.0383 16.5808C18.8015 16.6501 18.5811 16.7621 18.3871 16.91C18.5263 17.4175 18.6001 17.951 18.6001 18.5V19.5ZM17.5299 15.0776C17.1101 14.4732 16.5805 13.9479 15.9647 13.531C14.9714 12.8587 13.7995 12.4993 12.6001 12.4993C11.4007 12.4993 10.2288 12.8587 9.23553 13.531C8.61973 13.9479 8.09012 14.4732 7.67034 15.0776C7.37585 14.8995 7.05792 14.7591 6.72375 14.6613C5.92593 14.4278 5.07518 14.4486 4.28977 14.7209C3.50435 14.9932 2.82328 15.5035 2.34125 16.1808C1.85921 16.858 1.60016 17.6686 1.6001 18.4999V20.5C1.6001 21.0523 2.04781 21.5 2.6001 21.5H22.6001C23.1524 21.5 23.6001 21.0523 23.6001 20.5V18.5C23.6 17.6687 23.341 16.858 22.8589 16.1808C22.3769 15.5035 21.6959 14.9932 20.9104 14.7209C20.125 14.4486 19.2743 14.4278 18.4764 14.6613C18.1423 14.7591 17.8243 14.8995 17.5299 15.0776ZM6.81304 16.91C6.61914 16.7621 6.39869 16.6501 6.16192 16.5808C5.76302 16.464 5.33764 16.4744 4.94493 16.6106C4.55222 16.7467 4.21169 17.0019 3.97067 17.3405C3.72967 17.6791 3.60014 18.0844 3.6001 18.5C3.6001 18.5 3.6001 18.5 3.6001 18.5V19.5H6.6001V18.5C6.6001 17.951 6.67393 17.4175 6.81304 16.91Z" fill="url(#paint0_linear_313_1563)"/>
<defs>
<linearGradient id="paint0_linear_313_1563" x1="1.6001" y1="12.5" x2="23.6001" y2="12.5" gradientUnits="userSpaceOnUse">
<stop stop-color="#3257D0"/>
<stop offset="1" stop-color="#0092FF"/>
</linearGradient>
</defs>
</svg>
