<svg width="25" height="24" viewBox="0 0 25 24" fill="none" xmlns="http://www.w3.org/2000/svg">
<path d="M23.7935 4.44223C22.3389 3.8321 20.8831 3.59998 19.4281 3.59998C14.8093 3.5996 10.1908 5.93773 5.57188 5.93773C4.4135 5.93773 3.25588 5.79073 2.0975 5.42323C1.96738 5.38198 1.83688 5.36248 1.70938 5.36248C1.064 5.36248 0.5 5.86198 0.5 6.55535V18.4526C0.5 18.9262 0.771125 19.3751 1.2065 19.5574C2.66113 20.1679 4.11688 20.4 5.57188 20.4C10.1908 20.4 14.8096 18.0619 19.4285 18.0619C20.5869 18.0619 21.7445 18.2089 22.9029 18.5764C23.033 18.6176 23.1635 18.6371 23.291 18.6371C23.9364 18.6371 24.5004 18.1376 24.5004 17.4442V5.54735C24.5 5.07335 24.2289 4.62485 23.7935 4.44223ZM2.3 7.35823C3.0545 7.54723 3.842 7.6421 4.652 7.6931C4.4315 8.79523 3.4625 9.62585 2.3 9.62585V7.35823ZM2.3 18.0457V16.254C3.58888 16.254 4.63175 17.2766 4.68913 18.5565C3.84425 18.4886 3.0545 18.3199 2.3 18.0457ZM12.5 15.6C10.8429 15.6 9.5 13.9879 9.5 12C9.5 10.0117 10.8433 8.39998 12.5 8.39998C14.1568 8.39998 15.5 10.0117 15.5 12C15.5 13.9886 14.1564 15.6 12.5 15.6ZM22.7 16.6417C22.043 16.4771 21.3609 16.3849 20.663 16.3252C20.8831 15.3472 21.6943 14.6047 22.7 14.4772V16.6417ZM22.7 7.7876C21.5416 7.64098 20.6428 6.67385 20.6071 5.47948C21.3399 5.56085 22.0355 5.7131 22.7 5.95423V7.7876Z" fill="#8C8AA8"/>
</svg>
