<svg width="25" height="25" viewBox="0 0 25 25" fill="none" xmlns="http://www.w3.org/2000/svg">
<path d="M8.72029 18.5C8.72029 17.74 8.42029 17.06 7.95029 16.54L12.1003 9.41C12.3303 9.46 12.5603 9.5 12.8003 9.5C13.0403 9.5 13.2703 9.46 13.5003 9.41L17.6103 16.46C17.1103 17 16.8003 17.71 16.8003 18.5C16.8003 20.16 18.1403 21.5 19.8003 21.5C21.4603 21.5 22.8003 20.16 22.8003 18.5C22.8003 16.84 21.4603 15.5 19.8003 15.5C19.5603 15.5 19.3303 15.54 19.1003 15.59L14.9903 8.54C15.4903 8 15.8003 7.29 15.8003 6.5C15.8003 4.84 14.4603 3.5 12.8003 3.5C11.1403 3.5 9.80029 4.84 9.80029 6.5C9.80029 7.29 10.1103 8 10.6103 8.54L6.45029 15.66C6.24029 15.61 6.02029 15.58 5.80029 15.58C4.19029 15.58 2.88029 16.89 2.88029 18.5C2.88029 20.11 4.19029 21.42 5.80029 21.42C7.41029 21.42 8.72029 20.11 8.72029 18.5ZM20.8003 18.5C20.8003 19.05 20.3503 19.5 19.8003 19.5C19.2503 19.5 18.8003 19.05 18.8003 18.5C18.8003 17.95 19.2503 17.5 19.8003 17.5C20.3503 17.5 20.8003 17.95 20.8003 18.5ZM11.8003 6.5C11.8003 5.95 12.2503 5.5 12.8003 5.5C13.3503 5.5 13.8003 5.95 13.8003 6.5C13.8003 7.05 13.3503 7.5 12.8003 7.5C12.2503 7.5 11.8003 7.05 11.8003 6.5ZM4.78029 18.5C4.78029 17.95 5.23029 17.5 5.78029 17.5C6.33029 17.5 6.78029 17.95 6.78029 18.5C6.78029 19.05 6.33029 19.5 5.78029 19.5C5.23029 19.5 4.78029 19.05 4.78029 18.5Z" fill="#8C8AA8"/>
</svg>
