<svg width="21" height="19" viewBox="0 0 21 19" fill="none" xmlns="http://www.w3.org/2000/svg">
<path d="M6.72029 15.5C6.72029 14.74 6.42029 14.06 5.95029 13.54L10.1003 6.41C10.3303 6.46 10.5603 6.5 10.8003 6.5C11.0403 6.5 11.2703 6.46 11.5003 6.41L15.6103 13.46C15.1103 14 14.8003 14.71 14.8003 15.5C14.8003 17.16 16.1403 18.5 17.8003 18.5C19.4603 18.5 20.8003 17.16 20.8003 15.5C20.8003 13.84 19.4603 12.5 17.8003 12.5C17.5603 12.5 17.3303 12.54 17.1003 12.59L12.9903 5.54C13.4903 5 13.8003 4.29 13.8003 3.5C13.8003 1.84 12.4603 0.5 10.8003 0.5C9.14029 0.499999 7.80029 1.84 7.80029 3.5C7.80029 4.29 8.11029 5 8.61029 5.54L4.45029 12.66C4.24029 12.61 4.02029 12.58 3.80029 12.58C2.19029 12.58 0.880292 13.89 0.880292 15.5C0.880292 17.11 2.19029 18.42 3.80029 18.42C5.41029 18.42 6.72029 17.11 6.72029 15.5ZM18.8003 15.5C18.8003 16.05 18.3503 16.5 17.8003 16.5C17.2503 16.5 16.8003 16.05 16.8003 15.5C16.8003 14.95 17.2503 14.5 17.8003 14.5C18.3503 14.5 18.8003 14.95 18.8003 15.5ZM9.80029 3.5C9.80029 2.95 10.2503 2.5 10.8003 2.5C11.3503 2.5 11.8003 2.95 11.8003 3.5C11.8003 4.05 11.3503 4.5 10.8003 4.5C10.2503 4.5 9.80029 4.05 9.80029 3.5ZM2.78029 15.5C2.78029 14.95 3.23029 14.5 3.78029 14.5C4.33029 14.5 4.78029 14.95 4.78029 15.5C4.78029 16.05 4.33029 16.5 3.78029 16.5C3.23029 16.5 2.78029 16.05 2.78029 15.5Z" fill="url(#paint0_linear_313_2594)"/>
<defs>
<linearGradient id="paint0_linear_313_2594" x1="10.8403" y1="0.5" x2="10.8403" y2="18.5" gradientUnits="userSpaceOnUse">
<stop stop-color="#3257D0"/>
<stop offset="1" stop-color="#0092FF"/>
</linearGradient>
</defs>
</svg>
