<svg width="24" height="24" viewBox="0 0 24 24" fill="none" xmlns="http://www.w3.org/2000/svg">
<path d="M7.92 18C7.92 17.24 7.62 16.56 7.15 16.04L11.3 8.91C11.53 8.96 11.76 9 12 9C12.24 9 12.47 8.96 12.7 8.91L16.81 15.96C16.31 16.5 16 17.21 16 18C16 19.66 17.34 21 19 21C20.66 21 22 19.66 22 18C22 16.34 20.66 15 19 15C18.76 15 18.53 15.04 18.3 15.09L14.19 8.04C14.69 7.5 15 6.79 15 6C15 4.34 13.66 3 12 3C10.34 3 9 4.34 9 6C9 6.79 9.31 7.5 9.81 8.04L5.65 15.16C5.44 15.11 5.22 15.08 5 15.08C3.39 15.08 2.08 16.39 2.08 18C2.08 19.61 3.39 20.92 5 20.92C6.61 20.92 7.92 19.61 7.92 18ZM20 18C20 18.55 19.55 19 19 19C18.45 19 18 18.55 18 18C18 17.45 18.45 17 19 17C19.55 17 20 17.45 20 18ZM11 6C11 5.45 11.45 5 12 5C12.55 5 13 5.45 13 6C13 6.55 12.55 7 12 7C11.45 7 11 6.55 11 6ZM3.98 18C3.98 17.45 4.43 17 4.98 17C5.53 17 5.98 17.45 5.98 18C5.98 18.55 5.53 19 4.98 19C4.43 19 3.98 18.55 3.98 18Z" fill="#323237"/>
</svg>
