<svg width="25" height="25" viewBox="0 0 25 25" fill="none" xmlns="http://www.w3.org/2000/svg">
<path d="M16.5994 14.75C15.2541 14.75 14.6072 15.5 12.3994 15.5C10.1916 15.5 9.54941 14.75 8.19941 14.75C4.72129 14.75 1.89941 17.5719 1.89941 21.05V22.25C1.89941 23.4922 2.90723 24.5 4.14941 24.5H20.6494C21.8916 24.5 22.8994 23.4922 22.8994 22.25V21.05C22.8994 17.5719 20.0775 14.75 16.5994 14.75ZM20.6494 22.25H4.14941V21.05C4.14941 18.8188 5.96816 17 8.19941 17C8.88379 17 9.99473 17.75 12.3994 17.75C14.8229 17.75 15.9104 17 16.5994 17C18.8307 17 20.6494 18.8188 20.6494 21.05V22.25ZM12.3994 14C16.126 14 19.1494 10.9766 19.1494 7.25C19.1494 3.52344 16.126 0.5 12.3994 0.5C8.67285 0.5 5.64941 3.52344 5.64941 7.25C5.64941 10.9766 8.67285 14 12.3994 14ZM12.3994 2.75C14.8791 2.75 16.8994 4.77031 16.8994 7.25C16.8994 9.72969 14.8791 11.75 12.3994 11.75C9.91973 11.75 7.89941 9.72969 7.89941 7.25C7.89941 4.77031 9.91973 2.75 12.3994 2.75Z" fill="#8C8AA8"/>
</svg>
