<svg width="25" height="25" viewBox="0 0 25 25" fill="none" xmlns="http://www.w3.org/2000/svg">
<path fill-rule="evenodd" clip-rule="evenodd" d="M11.1992 4.5C10.934 4.5 10.6796 4.60536 10.4921 4.79289C10.3046 4.98043 10.1992 5.23478 10.1992 5.5C10.1992 5.76522 10.3046 6.01957 10.4921 6.20711C10.6796 6.39464 10.934 6.5 11.1992 6.5H13.1992C13.4644 6.5 13.7188 6.39464 13.9063 6.20711C14.0939 6.01957 14.1992 5.76522 14.1992 5.5C14.1992 5.23478 14.0939 4.98043 13.9063 4.79289C13.7188 4.60536 13.4644 4.5 13.1992 4.5H11.1992ZM9.0779 3.37868C9.64051 2.81607 10.4036 2.5 11.1992 2.5H13.1992C13.9949 2.5 14.7579 2.81607 15.3205 3.37868C15.6399 3.69808 15.8799 4.0821 16.0276 4.5H17.1992C17.9949 4.5 18.7579 4.81607 19.3205 5.37868C19.8831 5.94129 20.1992 6.70435 20.1992 7.5V19.5C20.1992 20.2957 19.8831 21.0587 19.3205 21.6213C18.7579 22.1839 17.9949 22.5 17.1992 22.5H7.19922C6.40357 22.5 5.64051 22.1839 5.0779 21.6213C4.51529 21.0587 4.19922 20.2957 4.19922 19.5V7.5C4.19922 6.70435 4.51529 5.94129 5.0779 5.37868C5.64051 4.81607 6.40357 4.5 7.19922 4.5H8.37079C8.51855 4.0821 8.75849 3.69808 9.0779 3.37868ZM8.37079 6.5H7.19922C6.934 6.5 6.67965 6.60536 6.49211 6.79289C6.30458 6.98043 6.19922 7.23478 6.19922 7.5V19.5C6.19922 19.7652 6.30458 20.0196 6.49211 20.2071C6.67965 20.3946 6.934 20.5 7.19922 20.5H17.1992C17.4644 20.5 17.7188 20.3946 17.9063 20.2071C18.0939 20.0196 18.1992 19.7652 18.1992 19.5V7.5C18.1992 7.23478 18.0939 6.98043 17.9063 6.79289C17.7188 6.60536 17.4644 6.5 17.1992 6.5H16.0276C15.8799 6.9179 15.6399 7.30192 15.3205 7.62132C14.7579 8.18393 13.9949 8.5 13.1992 8.5H11.1992C10.4036 8.5 9.64051 8.18393 9.0779 7.62132C8.75849 7.30192 8.51855 6.9179 8.37079 6.5ZM15.9063 11.7929C16.2969 12.1834 16.2969 12.8166 15.9063 13.2071L11.9063 17.2071C11.5158 17.5976 10.8826 17.5976 10.4921 17.2071L8.49211 15.2071C8.10159 14.8166 8.10159 14.1834 8.49211 13.7929C8.88264 13.4024 9.5158 13.4024 9.90633 13.7929L11.1992 15.0858L14.4921 11.7929C14.8826 11.4024 15.5158 11.4024 15.9063 11.7929Z" fill="url(#paint0_linear_322_1826)"/>
<defs>
<linearGradient id="paint0_linear_322_1826" x1="4.19922" y1="12.5" x2="20.1992" y2="12.5" gradientUnits="userSpaceOnUse">
<stop stop-color="#3257D0"/>
<stop offset="1" stop-color="#0092FF"/>
</linearGradient>
</defs>
</svg>
