<svg width="17" height="21" viewBox="0 0 17 21" fill="none" xmlns="http://www.w3.org/2000/svg">
<path fill-rule="evenodd" clip-rule="evenodd" d="M7.19922 2.5C6.934 2.5 6.67965 2.60536 6.49211 2.79289C6.30458 2.98043 6.19922 3.23478 6.19922 3.5C6.19922 3.76522 6.30458 4.01957 6.49211 4.20711C6.67965 4.39464 6.934 4.5 7.19922 4.5H9.19922C9.46444 4.5 9.71879 4.39464 9.90633 4.20711C10.0939 4.01957 10.1992 3.76522 10.1992 3.5C10.1992 3.23478 10.0939 2.98043 9.90633 2.79289C9.71879 2.60536 9.46444 2.5 9.19922 2.5H7.19922ZM5.0779 1.37868C5.64051 0.81607 6.40357 0.5 7.19922 0.5H9.19922C9.99487 0.5 10.7579 0.81607 11.3205 1.37868C11.6399 1.69808 11.8799 2.0821 12.0276 2.5H13.1992C13.9949 2.5 14.7579 2.81607 15.3205 3.37868C15.8831 3.94129 16.1992 4.70435 16.1992 5.5V17.5C16.1992 18.2957 15.8831 19.0587 15.3205 19.6213C14.7579 20.1839 13.9949 20.5 13.1992 20.5H3.19922C2.40357 20.5 1.64051 20.1839 1.0779 19.6213C0.515289 19.0587 0.199219 18.2957 0.199219 17.5V5.5C0.199219 4.70435 0.515289 3.94129 1.0779 3.37868C1.64051 2.81607 2.40357 2.5 3.19922 2.5H4.37079C4.51855 2.0821 4.75849 1.69808 5.0779 1.37868ZM4.37079 4.5H3.19922C2.934 4.5 2.67965 4.60536 2.49211 4.79289C2.30458 4.98043 2.19922 5.23478 2.19922 5.5V17.5C2.19922 17.7652 2.30458 18.0196 2.49211 18.2071C2.67965 18.3946 2.934 18.5 3.19922 18.5H13.1992C13.4644 18.5 13.7188 18.3946 13.9063 18.2071C14.0939 18.0196 14.1992 17.7652 14.1992 17.5V5.5C14.1992 5.23478 14.0939 4.98043 13.9063 4.79289C13.7188 4.60536 13.4644 4.5 13.1992 4.5H12.0276C11.8799 4.9179 11.6399 5.30192 11.3205 5.62132C10.7579 6.18393 9.99487 6.5 9.19922 6.5H7.19922C6.40357 6.5 5.64051 6.18393 5.0779 5.62132C4.75849 5.30192 4.51855 4.9179 4.37079 4.5ZM11.9063 9.79289C12.2969 10.1834 12.2969 10.8166 11.9063 11.2071L7.90633 15.2071C7.5158 15.5976 6.88264 15.5976 6.49211 15.2071L4.49211 13.2071C4.10159 12.8166 4.10159 12.1834 4.49211 11.7929C4.88264 11.4024 5.5158 11.4024 5.90633 11.7929L7.19922 13.0858L10.4921 9.79289C10.8826 9.40237 11.5158 9.40237 11.9063 9.79289Z" fill="url(#paint0_linear_322_1624)"/>
<defs>
<linearGradient id="paint0_linear_322_1624" x1="0.199219" y1="10.5" x2="16.1992" y2="10.5" gradientUnits="userSpaceOnUse">
<stop stop-color="#3257D0"/>
<stop offset="1" stop-color="#0092FF"/>
</linearGradient>
</defs>
</svg>
